<svg width="571" height="359" viewBox="0 0 571 359" fill="none" xmlns="http://www.w3.org/2000/svg">
<g clip-path="url(#clip0_656_417)">
<path d="M547.758 304.245H0.000976562V359.074H547.758V304.245Z" fill="white"/>
<path d="M290.605 228.555C290.605 228.555 283.081 236.589 275.558 245.61C272.333 249.274 269.243 253.221 266.556 256.745C257.554 268.584 249.09 271.967 239.148 283.525C232.968 290.714 224.907 296.211 209.859 298.748C194.812 301.285 139.727 305.372 139.727 305.372C139.727 305.372 138.383 297.761 139.324 295.224C139.592 294.519 138.921 293.11 137.98 291.136C135.562 286.062 131.531 278.31 139.324 277.323C149.938 276.055 201.664 262.946 204.082 259C206.5 255.053 220.473 236.871 227.997 220.379C235.52 203.888 246.806 183.732 258.36 163.999C268.437 146.663 271.393 145.817 276.767 140.743L283.081 181.054L290.605 228.555Z" fill="#6D9BFF"/>
<path d="M114.469 303.681H77.6566V301.99C77.6566 291.419 85.8521 282.68 96.063 282.68C106.139 282.68 114.469 291.278 114.469 301.99V303.681V303.681Z" fill="#A5A5A5"/>
<path d="M115.679 281.693C112.723 280.566 103.722 276.055 98.885 276.055C94.0483 276.055 85.9871 284.653 81.4191 288.882C76.8511 293.11 83.1657 297.057 86.7933 295.084C90.5551 293.11 94.0483 288.177 97.5415 288.318C101.035 288.459 102.647 291.701 104.528 292.406C105.468 292.688 106.006 295.507 104.259 296.775C102.378 298.185 98.2133 298.185 97.1384 298.889C94.8544 300.44 96.3323 304.527 100.229 304.527C104.125 304.527 107.349 304.95 112.052 303.964C116.62 302.977 122.397 304.386 125.89 302.836C129.518 301.285 139.594 305.091 139.594 305.091L132.339 284.371C132.339 284.653 121.456 284.09 115.679 281.693Z" fill="#FDD2BB"/>
<path d="M118.366 281.694C119.173 284.794 121.054 286.909 122.531 291.701C125.89 301.99 121.591 303.964 121.591 303.964C121.591 303.964 140.4 305.373 143.759 303.964C143.759 303.964 148.327 298.608 143.759 288.036C139.191 277.465 139.191 277.465 139.191 277.465C139.191 277.465 136.37 277.465 128.04 278.734C121.188 279.72 118.366 281.694 118.366 281.694Z" fill="#2C5CFF"/>
<path d="M381.162 71.3962C381.162 71.3962 377.4 82.9542 376.997 92.9616C376.594 102.969 376.594 116.782 379.415 122.138C382.236 127.494 411.66 145.536 411.66 145.536C411.66 145.536 378.206 152.865 345.155 150.751C312.104 148.637 304.983 133.978 304.983 133.978C304.983 133.978 330.107 123.689 330.779 121.011C331.451 118.333 336.288 98.4587 336.288 98.4587L381.162 71.3962Z" fill="#F6C1AA"/>
<path opacity="0.28" d="M378.743 120.306C376.728 114.104 376.728 101.982 376.996 92.9616C377.399 82.9542 381.161 71.3962 381.161 71.3962L336.422 98.1768C336.422 98.1768 331.585 118.192 330.913 120.729C330.241 123.407 305.117 133.696 305.117 133.696C305.117 133.696 305.386 134.26 306.058 135.106C330.376 130.877 354.559 125.662 378.743 120.306Z" fill="#EB9271"/>
<path d="M322.855 69.0008C323.93 60.6848 324.199 30.3805 324.199 30.3805L362.758 16.1445L396.481 35.8776C396.481 35.8776 388.419 62.6581 388.285 71.1151C388.151 79.5721 387.613 90.8481 382.508 98.8823C377.537 106.916 364.37 119.461 361.28 121.011C352.01 125.522 345.964 122.421 338.978 118.192C336.022 116.36 331.991 107.198 328.095 98.4594C324.064 89.7205 321.78 77.3169 322.855 69.0008Z" fill="#FDD2BB"/>
<path d="M383.313 47.9986C383.313 47.9986 383.447 58.8517 386.134 65.8992C386.671 67.3088 386.268 71.5373 385.731 76.6115C387.074 74.9201 388.552 73.3696 389.896 71.8192C392.717 68.7183 395.27 65.6173 397.688 62.3755C399.166 56.1737 401.719 47.8576 401.585 43.0653C401.316 28.5475 401.316 20.5133 376.057 7.54588C371.221 5.14973 361.413 -1.61588 356.442 0.357424C348.918 3.31738 346.768 6.13638 340.857 11.3515C340.857 11.3515 332.93 9.66013 322.988 20.9361C317.211 27.5608 318.957 37.1454 319.226 44.3339C319.898 58.9927 323.66 58.147 323.66 58.147C324.197 50.6766 322.988 47.5757 325.138 36.2997C325.809 32.4941 331.184 31.2255 334.945 30.3798C338.439 29.5341 339.648 28.1246 351.337 40.3873C358.323 47.7167 362.085 47.1529 383.313 47.9986Z" fill="#5C3000"/>
<path d="M384.254 70.8324C386.135 63.503 389.091 58.1469 392.315 58.2879C395.406 58.5698 398.63 64.6306 394.734 71.5372C390.838 78.4437 388.285 82.6722 386.135 85.3503C383.986 88.3102 383.045 75.4838 384.254 70.8324Z" fill="#FDD2BB"/>
<path d="M386.134 71.6779C387.209 67.7313 388.956 62.798 391.777 63.0799C394.599 63.3618 395.002 66.6037 391.105 72.2417C387.209 77.7387 386.403 80.6987 386.403 80.6987C386.403 80.6987 385.597 73.9331 386.134 71.6779Z" fill="#EB9271"/>
<path d="M352.409 219.817C348.244 245.469 346.363 308.474 336.018 303.682C330.375 301.004 312.909 301.145 298.13 301.709C286.038 302.272 275.962 303.118 275.962 303.118C275.962 303.118 275.29 274.646 275.559 245.61C275.693 231.656 275.962 217.702 276.768 206.567C277.037 202.903 277.171 199.379 277.305 195.996C278.246 163.436 273.141 144.549 276.768 140.884C280.799 136.797 327.688 124.393 329.972 118.473L333.465 135.81C342.064 150.187 353.215 145.818 353.215 145.818C353.215 145.818 356.574 194.164 352.409 219.817Z" fill="#6D9BFF"/>
<path d="M341.391 150.61C339.107 164.846 338.57 175.981 334.673 203.325C330.777 230.669 332.658 241.945 330.911 259.141C329.165 276.337 325.94 301.849 325.94 301.849L354.02 306.219C354.02 306.219 354.961 256.886 356.439 222.212C357.916 187.539 363.425 156.671 363.425 156.671L367.187 135.528C367.187 135.528 356.842 147.086 346.093 145.958C335.211 144.549 341.391 150.61 341.391 150.61Z" fill="#2C5CFF"/>
<path d="M425.364 171.048C424.289 181.619 428.991 194.727 426.842 209.527C425.364 219.394 423.483 231.374 421.467 243.355C418.646 260.41 420.258 303.541 420.258 303.541C420.258 303.541 356.172 301.145 345.289 304.386C334.541 307.487 341.259 244.905 340.587 218.83C339.915 192.754 349.992 145.677 349.992 145.677C349.992 145.677 358.321 145.677 371.085 135.246C379.012 128.904 380.355 120.447 380.355 120.447C381.833 126.507 425.498 140.32 428.991 145.113C429.529 145.818 429.932 147.227 430.2 149.059C430.603 153.711 426.304 161.181 425.364 171.048Z" fill="#6D9BFF"/>
<path d="M349.855 145.676C353.751 144.549 366.783 136.937 371.62 130.172C376.457 123.406 377.8 115.795 377.8 115.795C377.8 115.795 382.368 123.547 382.905 128.48C383.443 133.414 372.426 157.375 370.411 164C370.411 164 366.917 163.295 360.468 157.516C354.02 151.737 349.855 145.676 349.855 145.676Z" fill="#2C5CFF"/>
<path d="M331.584 117.768C331.584 117.768 329.435 121.151 334.271 129.467C339.108 137.783 349.722 145.817 349.722 145.817L332.525 163.295C332.525 163.295 328.494 152.865 326.076 143.844C323.657 134.823 324.06 125.238 325.27 122.419C326.613 119.741 331.584 117.768 331.584 117.768Z" fill="#2C5CFF"/>
<path d="M354.96 184.438C354.825 187.116 352.676 188.948 350.123 188.807C347.57 188.666 345.824 186.411 345.958 183.733C346.092 181.055 348.242 179.223 350.795 179.364C353.348 179.505 355.228 181.76 354.96 184.438Z" fill="#2C5CFF"/>
<path d="M351.468 235.181C351.334 237.859 349.184 239.691 346.632 239.55C344.079 239.409 342.332 237.154 342.467 234.476C342.601 231.798 344.751 229.966 347.303 230.106C349.856 230.247 351.737 232.503 351.468 235.181Z" fill="#2C5CFF"/>
<path d="M347.973 285.781C347.839 288.459 345.689 290.291 343.137 290.151C340.584 290.01 338.837 287.754 338.972 285.076C339.106 282.398 341.256 280.566 343.808 280.707C346.361 280.989 348.242 283.244 347.973 285.781Z" fill="#2C5CFF"/>
<path d="M374.038 203.183C385.19 204.17 397.416 205.579 402.118 205.016V212.486C402.118 212.486 390.967 211.217 381.159 211.217C367.186 211.217 367.186 211.217 367.186 211.217L368.395 203.183C368.395 203.183 368.261 202.76 374.038 203.183Z" fill="#2C5CFF"/>
<path d="M286.441 296.21H224.907V303.681H286.441V296.21Z" fill="#E9EBEE"/>
<path d="M365.576 296.21H286.307V303.681H365.576V296.21Z" fill="#E9EBEE"/>
<path d="M290.607 292.967V296.209H294.369H301.624V292.967H294.369H290.607Z" fill="#D5D5D7"/>
<path d="M276.767 292.967V296.209H280.529H287.784V292.967H280.529H276.767Z" fill="#D5D5D7"/>
<path d="M262.928 292.967V296.209H266.69H273.945V292.967H266.69H262.928Z" fill="#D5D5D7"/>
<path d="M249.09 292.967V296.209H252.852H260.107V292.967H252.852H249.09Z" fill="#D5D5D7"/>
<path d="M350.662 292.967H346.765V296.209H350.662H357.782V292.967H350.662Z" fill="#D5D5D7"/>
<path d="M332.927 292.967V296.209H336.823H343.944V292.967H336.823H332.927Z" fill="#D5D5D7"/>
<path d="M319.088 292.967V296.209H322.985H330.105V292.967H322.985H319.088Z" fill="#D5D5D7"/>
<path d="M305.25 292.967V296.209H309.146H316.267V292.967H309.146H305.25Z" fill="#D5D5D7"/>
<path d="M235.251 292.969V296.21H239.012H246.268V292.969H239.012H235.251Z" fill="#D5D5D7"/>
<path d="M244.79 92.397H27.5413C24.0481 92.397 21.361 95.3569 21.7641 99.1626L36.946 253.503C37.349 257.168 40.4392 260.269 44.0667 260.269H261.315C264.809 260.269 267.496 257.309 267.093 253.503L251.911 99.1626C251.508 95.3569 248.283 92.397 244.79 92.397Z" fill="#FAFCFF"/>
<path d="M244.79 92.397H27.5413C24.0481 92.397 21.361 95.3569 21.7641 99.1626L36.946 253.503C37.349 257.168 40.4392 260.269 44.0667 260.269H261.315C264.809 260.269 267.496 257.309 267.093 253.503L251.911 99.1626C251.508 95.3569 248.283 92.397 244.79 92.397Z" fill="#6B6B6B"/>
<path d="M240.762 92.3977H23.5136C20.0204 92.3977 17.3333 95.3577 17.602 99.1633L30.6343 253.504C30.903 257.168 34.1274 260.269 37.6206 260.269H254.869C258.362 260.269 261.05 257.309 260.781 253.504L247.749 99.1633C247.48 95.3577 244.255 92.3977 240.762 92.3977Z" fill="#D5D5D7"/>
<path d="M204.218 247.725C202.875 247.725 201.531 246.597 201.397 245.047L200.322 232.361C200.188 230.952 201.263 229.683 202.606 229.683C203.95 229.683 205.293 230.811 205.428 232.361L206.502 245.047C206.637 246.597 205.696 247.725 204.218 247.725Z" fill="#E9EBEE"/>
<path d="M212.278 247.723C210.934 247.723 209.591 246.595 209.457 245.045L208.382 232.359C208.247 230.95 209.322 229.681 210.666 229.681C212.009 229.681 213.353 230.809 213.487 232.359L214.562 245.045C214.696 246.595 213.756 247.723 212.278 247.723Z" fill="#E9EBEE"/>
<path d="M220.34 247.723C218.996 247.723 217.653 246.595 217.518 245.045L216.444 232.359C216.309 230.95 217.384 229.681 218.728 229.681C220.071 229.681 221.415 230.809 221.549 232.359L222.624 245.045C222.758 246.595 221.683 247.723 220.34 247.723Z" fill="#E9EBEE"/>
<path d="M228.402 247.723C227.058 247.723 225.715 246.595 225.58 245.045L224.506 232.359C224.371 230.95 225.446 229.681 226.789 229.681C228.133 229.681 229.477 230.809 229.611 232.359L230.686 245.045C230.82 246.595 229.745 247.723 228.402 247.723Z" fill="#E9EBEE"/>
<path d="M236.462 247.723C235.118 247.723 233.775 246.595 233.641 245.045L232.566 232.359C232.431 230.95 233.506 229.681 234.85 229.681C236.193 229.681 237.537 230.809 237.671 232.359L238.746 245.045C238.88 246.595 237.805 247.723 236.462 247.723Z" fill="#E9EBEE"/>
<path d="M189.84 298.325H159.611V304.245L189.84 305.232V298.325Z" fill="#6B6B6B"/>
<path d="M148.326 271.544L155.985 176.403H122.799L108.424 270.558C106.408 281.411 109.633 292.969 116.082 298.184L123.471 304.245H164.449L163.777 298.325C151.82 293.533 146.983 281.975 148.326 271.544Z" fill="#6B6B6B"/>
<path d="M143.488 271.547L151.147 176.405H117.961L103.586 270.56C101.57 281.413 104.795 292.971 111.244 298.186L118.633 304.247H159.611L151.415 297.622C145.369 292.689 142.145 281.977 143.488 271.547Z" fill="#A5A5A5"/>
<path d="M144.161 284.935H103.721C104.93 290.432 107.617 295.365 111.11 298.184L118.499 304.245H159.477L151.282 297.62C148.057 294.801 145.504 290.291 144.161 284.935Z" fill="#6B6B6B"/>
<path d="M481.657 282.962C481.657 282.962 469.162 275.774 459.086 270.982C449.009 266.189 434.365 274.787 434.365 274.787C434.365 274.787 432.618 269.854 430.066 263.652C427.513 257.169 424.289 249.275 421.333 243.496C419.721 240.114 418.243 237.576 417.033 236.308C411.928 230.67 412.465 224.045 410.988 220.803C410.988 220.662 410.853 220.522 410.853 220.381C409.778 216.152 412.6 198.956 415.69 183.311C418.914 167.101 423.214 141.871 423.214 141.871C424.692 143.281 429.797 144.549 432.484 147.932C432.484 147.932 450.756 176.968 458.414 196.983C472.387 233.348 474.671 240.818 476.955 254.209C479.508 267.458 481.657 282.962 481.657 282.962Z" fill="#6D9BFF"/>
<path d="M325.136 290.434C335.885 288.178 343.811 293.675 350.529 294.098C357.247 294.521 381.296 291.843 381.296 291.843L375.922 278.876C375.922 278.876 348.514 278.312 339.243 281.554C329.973 284.796 325.136 290.434 325.136 290.434Z" fill="#FDD2BB"/>
<path d="M381.43 277.043C381.43 277.043 367.188 274.365 360.336 274.224C348.782 273.943 335.75 273.943 333.063 276.198C330.376 278.453 316.537 294.944 314.656 297.622C312.776 300.3 313.716 303.401 319.493 301.287C325.27 299.173 334.809 287.615 340.587 284.937C346.364 282.259 357.112 284.514 357.112 284.514L378.474 282.4L381.43 277.043Z" fill="#FDD2BB"/>
<path opacity="0.28" d="M364.636 274.51C347.574 278.88 330.914 284.8 316.538 295.089C315.598 296.217 314.926 297.203 314.523 297.626C312.642 300.304 313.582 303.405 319.359 301.291C325.137 299.177 334.676 287.619 340.453 284.941C346.23 282.263 356.978 284.518 356.978 284.518L378.341 282.404L381.296 277.048C381.431 277.048 371.892 275.356 364.636 274.51Z" fill="#EB9271"/>
<path d="M367.19 277.607C367.19 277.607 347.305 276.198 342.2 275.634C336.96 275.07 332.93 279.581 330.108 284.937C327.153 290.293 321.241 299.595 322.585 302.274C323.794 305.093 327.153 304.811 329.84 301.71C332.661 298.609 336.289 290.857 340.185 289.306C344.081 287.756 357.248 284.514 357.248 284.514L367.19 277.607Z" fill="#FDD2BB"/>
<path opacity="0.28" d="M342.47 280.99C334.275 284.655 327.019 304.67 329.841 301.71C332.662 298.609 336.29 290.857 340.186 289.306C344.082 287.756 357.249 284.514 357.249 284.514L367.325 277.466C367.325 277.466 362.354 277.043 356.712 276.621C351.74 277.607 347.038 279.017 342.47 280.99Z" fill="#EB9271"/>
<path d="M402.121 296.213C402.121 296.213 391.91 295.508 388.283 299.172C384.655 302.837 381.027 304.529 377.669 304.106C374.175 303.683 367.995 300.441 365.174 298.609C362.352 296.776 353.216 302.978 350.395 304.388C347.439 305.938 344.886 303.26 346.23 300.018C347.708 296.776 350.664 293.675 353.082 292.407C355.5 291.138 365.846 288.46 365.846 288.46H365.711H365.577C364.368 288.319 359.665 287.756 356.575 287.897C353.082 288.178 349.455 290.434 346.096 294.944C342.871 299.454 339.378 304.529 337.497 305.374C336.96 305.656 336.288 305.515 335.751 304.81C334.541 303.542 334.004 300.723 335.616 297.058C338.034 291.702 344.215 283.245 347.439 279.017C350.664 274.788 355.5 274.365 360.203 274.224C364.771 274.083 375.519 274.083 375.519 274.083C375.519 274.083 387.342 273.802 393.925 273.802C397.956 273.942 402.121 296.213 402.121 296.213Z" fill="#FDD2BB"/>
<path opacity="0.28" d="M394.06 273.942C392.582 273.942 390.97 273.942 389.223 273.942C389.358 282.681 388.82 291.42 387.477 300.018C387.746 299.736 388.014 299.454 388.417 299.172C392.045 295.508 402.256 296.212 402.256 296.212C402.256 296.212 397.956 273.942 394.06 273.942Z" fill="#EB9271"/>
<path opacity="0.28" d="M365.847 288.319H365.712H365.578C364.369 288.178 359.666 287.614 356.576 287.755C353.083 288.037 349.456 290.292 346.097 294.803C342.872 299.313 339.379 304.387 337.498 305.233C336.961 305.515 336.289 305.374 335.752 304.669C339.245 300.159 342.872 293.252 344.619 290.151C347.306 285.359 355.098 284.513 357.114 284.513C358.995 284.513 365.847 288.319 365.847 288.319Z" fill="#EB9271"/>
<path d="M442.829 254.772C442.829 254.772 432.752 262.947 418.78 267.458C403.464 272.391 394.059 273.942 394.059 273.942C394.059 273.942 395.134 287.191 395.537 301.004C395.537 301.004 429.125 306.501 451.024 302.132C472.924 297.621 478.433 298.467 482.06 288.459C485.688 278.452 479.642 258.86 476.82 250.262C473.999 241.523 456.399 248.289 442.829 254.772Z" fill="#6D9BFF"/>
<path d="M390.03 273.801C393.657 278.876 393.523 286.487 394.463 297.058C395.135 304.388 392.717 304.247 392.717 304.247L411.123 303.683C411.123 303.683 413.138 292.548 410.317 282.258C407.361 271.969 407.361 271.969 407.361 271.969L390.03 273.801Z" fill="#2C5CFF"/>
<path d="M501.138 261.536C501.541 258.717 503.691 256.18 506.378 255.334C508.393 254.77 510.677 254.911 512.155 253.361C513.767 251.669 513.096 248.85 513.096 246.454C513.096 241.662 516.051 237.151 520.351 235.46C522.232 234.755 524.381 234.614 525.859 233.205C527.337 231.795 527.874 229.54 528.412 227.426C529.89 222.211 532.98 217.7 537.01 214.317C538.757 212.908 540.907 211.78 542.922 212.344C544.534 212.908 545.743 214.458 546.146 216.15C546.55 217.841 546.281 219.673 545.743 221.365C543.594 227.708 537.414 232.218 536.07 238.843C535.398 242.085 536.07 245.608 535.398 248.85C534.592 252.656 532.039 255.898 528.681 257.448C527.068 258.153 525.053 258.576 523.978 260.126C522.769 261.818 523.172 264.355 522.903 266.469C522.366 271.12 518.067 274.644 513.633 274.926C509.199 275.208 504.9 272.389 502.482 268.583C502.213 268.724 500.735 264.496 501.138 261.536Z" fill="#4BBD6D"/>
<path d="M521.693 257.026C523.305 254.912 523.574 251.952 522.499 249.555C521.693 247.864 520.08 246.173 520.215 244.34C520.349 242.226 522.499 240.957 524.111 239.407C527.201 236.588 528.276 231.514 526.664 227.567C523.305 219.11 530.56 211.781 529.888 202.76C529.754 200.787 529.216 198.531 527.47 197.404C526.126 196.558 524.38 196.699 523.036 197.545C521.693 198.25 520.752 199.659 519.946 201.069C517.662 205.579 517.662 210.371 516.184 215.023C514.706 219.392 511.213 221.647 508.795 225.312C506.914 228.131 506.376 232.078 507.451 235.319C507.989 237.011 508.929 238.561 508.526 240.253C508.123 242.226 506.376 243.354 505.167 244.904C502.615 248.146 502.883 253.361 505.436 256.603C507.989 259.845 512.422 261.254 516.319 260.55C516.453 260.55 520.08 258.999 521.693 257.026Z" fill="#44AB63"/>
<path d="M519.543 262.241C519.275 259.845 517.528 257.59 515.244 256.885C513.632 256.321 511.617 256.462 510.407 255.053C509.198 253.502 509.736 251.247 509.87 249.274C510.004 245.327 507.586 241.381 503.958 239.971C502.346 239.407 500.6 239.125 499.39 237.998C498.181 236.729 497.778 234.897 497.375 233.205C496.166 228.836 493.748 224.889 490.389 222.07C489.045 220.943 487.164 219.815 485.418 220.379C484.074 220.802 482.999 222.07 482.731 223.48C482.328 224.889 482.596 226.44 482.999 227.849C484.746 233.205 489.851 237.152 490.792 242.649C491.329 245.468 490.657 248.287 491.195 251.106C491.732 254.207 493.882 257.026 496.703 258.435C498.047 259.14 499.659 259.563 500.6 260.832C501.54 262.382 501.137 264.355 501.406 266.188C501.809 269.993 505.302 273.094 508.93 273.376C512.691 273.658 516.319 271.544 518.469 268.302C518.334 268.161 519.812 264.637 519.543 262.241Z" fill="#44AB63"/>
<path d="M496.435 249.837C495.897 247.864 494.419 246.313 493.748 244.481C492.404 241.239 493.21 237.433 494.554 234.051C495.629 231.654 496.972 229.117 496.838 226.58C496.703 224.889 496.032 223.338 495.494 221.788C494.419 217.982 494.554 213.895 494.822 209.948C494.957 207.552 495.091 205.015 496.032 202.901C496.972 200.645 498.719 198.672 501.003 198.249C504.093 197.686 507.183 200.223 508.258 203.324C509.467 206.424 509.198 209.807 508.795 213.049C508.392 216.291 507.989 219.674 508.929 222.916C509.87 226.58 512.423 229.399 513.901 232.923C515.647 237.152 515.244 242.367 513.094 246.313C512.02 248.287 510.407 250.119 509.736 252.374C508.392 257.026 511.213 261.959 511.751 266.751C512.154 269.852 511.482 273.235 509.467 275.49C505.033 280.846 497.644 277.181 496.032 271.121C495.225 268.02 494.285 264.073 494.688 260.831C495.091 257.166 497.509 253.643 496.435 249.837Z" fill="#4BBD6D"/>
<path d="M527.201 304.244H497.643L487.835 254.347H537.009L527.201 304.244Z" fill="#D5D5D7"/>
<path d="M554.948 305.158H-14.7084V324.468H554.948V305.158Z" stroke="#D4DBF1" stroke-width="0.282631" stroke-miterlimit="10"/>
</g>
<defs>
<clipPath id="clip0_656_417">
<rect width="571" height="359" fill="white"/>
</clipPath>
</defs>
</svg>
